<svg xmlns="http://www.w3.org/2000/svg" style="max-width:100%" viewBox="0 0 100 100"><g fill="currentColor"><path stroke="currentColor" d="M26.485 972.164c-4.43 4.225-7.424 8.214-7.985 12.776.117 9.367 8.585 20.231 18.558 30.195 4.95 4.945 10.285 9.863 15.502 13.43 5.216 3.568 10.313 5.87 14.908 5.173 4.492-.512 9.482-5.497 12.726-8.04 1.747-1.446 1.747-5.434-.031-6.98l-8.422-8.413c-2.18-1.741-5.053-1.828-7.33-.654-2.054 1.425-4.107 3.014-5.863 4.268-1.855.88-3.739-.497-5.146-1.496-2.4-1.716-5.023-4.332-7.143-6.45-2.135-2.133-4.802-4.607-6.519-6.918-1.322-1.753-2.129-3.646-1.372-5.453 1.399-1.934 2.887-3.848 4.242-5.796 1.03-2.353 1.102-5.44-.593-7.198l-8.421-8.413c-2.365-1.863-4.831-1.68-7.111-.031zm5.707 1.465 8.422 8.382c1.088 1.556.804 3.206.25 4.83l-4.087 5.578c-1.619 2.856-.248 5.62 1.373 7.82 1.89 2.544 4.578 5.074 6.674 7.168 2.122 2.12 4.81 4.8 7.424 6.668 2.193 1.536 5.378 3.095 7.548 1.403 1.882-1.342 3.745-2.719 5.614-4.082 1.779-.78 3.388-.65 4.897.311l8.452 8.445c1.032 1.413.785 2.733.031 4.082-3.836 3.01-7.828 6.998-11.634 7.51-3.703.548-8.454-1.397-13.474-4.83-5.033-3.442-10.311-8.276-15.22-13.181-9.826-9.817-17.826-20.632-17.966-28.762.636-3.44 3.46-7.247 7.36-11.373 1.594-1.093 2.857-.908 4.336.03z" overflow="visible" style="text-indent:0;text-transform:none;direction:ltr;block-progression:tb;baseline-shift:baseline;color:#000;enable-background:accumulate" transform="translate(0 -952.362)"/></g></svg>